<svg width="28" height="23" viewBox="0 0 28 23" fill="none" xmlns="http://www.w3.org/2000/svg">
<path d="M23.0947 22.6667H4.90533C3.60479 22.6653 2.35792 22.148 1.4383 21.2284C0.518676 20.3087 0.00141172 19.0619 0 17.7613V4.90533C0.00141172 3.60479 0.518676 2.35792 1.4383 1.4383C2.35792 0.518675 3.60479 0.00141172 4.90533 0H23.0947C24.3952 0.00141172 25.6421 0.518675 26.5617 1.4383C27.4813 2.35792 27.9986 3.60479 28 4.90533V17.7613C27.9986 19.0619 27.4813 20.3087 26.5617 21.2284C25.6421 22.148 24.3952 22.6653 23.0947 22.6667ZM4.90533 1.33333C3.9583 1.33439 3.05037 1.71107 2.38072 2.38072C1.71107 3.05037 1.33439 3.9583 1.33333 4.90533V17.7613C1.33439 18.7084 1.71107 19.6163 2.38072 20.2859C3.05037 20.9556 3.9583 21.3323 4.90533 21.3333H23.0947C24.0417 21.3323 24.9496 20.9556 25.6193 20.2859C26.2889 19.6163 26.6656 18.7084 26.6667 17.7613V4.90533C26.6656 3.9583 26.2889 3.05037 25.6193 2.38072C24.9496 1.71107 24.0417 1.33439 23.0947 1.33333H4.90533Z" fill="white"/>
<path d="M14 14.2787C13.8283 14.279 13.663 14.2131 13.5387 14.0947L3.71468 4.70399C3.65138 4.64349 3.60062 4.57112 3.56529 4.49101C3.52996 4.4109 3.51076 4.32461 3.50878 4.23707C3.50478 4.06029 3.57117 3.88916 3.69334 3.76132C3.81552 3.63349 3.98347 3.55942 4.16026 3.55542C4.33704 3.55142 4.50818 3.61781 4.63601 3.73999L14 12.6907L23.364 3.73999C23.4273 3.67949 23.5019 3.63206 23.5835 3.60039C23.6652 3.56872 23.7522 3.55344 23.8398 3.55542C23.9273 3.5574 24.0136 3.57661 24.0937 3.61194C24.1738 3.64726 24.2462 3.69803 24.3067 3.76132C24.3672 3.82462 24.4146 3.89921 24.4463 3.98084C24.4779 4.06247 24.4932 4.14954 24.4912 4.23707C24.4893 4.32461 24.4701 4.4109 24.4347 4.49101C24.3994 4.57112 24.3486 4.64349 24.2853 4.70399L14.4613 14.0947C14.337 14.2131 14.1717 14.279 14 14.2787Z" fill="white"/>
<path d="M4.26666 19.1107C4.13376 19.1107 4.00389 19.0709 3.89373 18.9966C3.78356 18.9223 3.69813 18.8167 3.6484 18.6934C3.59868 18.5702 3.58692 18.4349 3.61464 18.3049C3.64237 18.1749 3.7083 18.0562 3.80399 17.964L11.1907 10.884C11.3183 10.7616 11.4894 10.695 11.6661 10.6988C11.8429 10.7025 12.011 10.7763 12.1333 10.904C12.2557 11.0316 12.3223 11.2027 12.3186 11.3795C12.3148 11.5563 12.241 11.7243 12.1133 11.8467L4.73066 18.9253C4.60587 19.0449 4.4395 19.1114 4.26666 19.1107Z" fill="white"/>
<path d="M23.7333 19.1093C23.5614 19.1093 23.3961 19.0429 23.272 18.924L15.888 11.8467C15.8248 11.7861 15.7741 11.7136 15.7389 11.6335C15.7037 11.5533 15.6846 11.467 15.6828 11.3795C15.6809 11.2919 15.6963 11.2049 15.7281 11.1233C15.7599 11.0417 15.8074 10.9672 15.868 10.904C15.9286 10.8408 16.001 10.7901 16.0812 10.7549C16.1613 10.7197 16.2477 10.7006 16.3352 10.6988C16.4227 10.6969 16.5098 10.7123 16.5914 10.7441C16.6729 10.7759 16.7475 10.8234 16.8107 10.884L24.1947 17.9613C24.2907 18.0534 24.3571 18.1721 24.3851 18.3022C24.4131 18.4323 24.4016 18.5678 24.352 18.6912C24.3024 18.8147 24.2169 18.9205 24.1067 18.995C23.9964 19.0695 23.8664 19.1093 23.7333 19.1093Z" fill="white"/>
</svg>
