<svg width="27" height="27" viewBox="0 0 27 27" fill="none" xmlns="http://www.w3.org/2000/svg">
<path d="M26.584 7.61333C26.5609 6.52286 26.3554 5.44395 25.976 4.42133C25.6599 3.56938 25.159 2.79802 24.5093 2.16267C23.8718 1.51184 23.0976 1.01087 22.2427 0.696C21.2205 0.316492 20.1421 0.110979 19.052 0.088C17.58 0.016 17.0893 0 13.3333 0C9.57733 0 9.08667 0.016 7.61333 0.0826667C6.52286 0.105773 5.44395 0.31128 4.42133 0.690667C3.56938 1.00678 2.79802 1.50767 2.16267 2.15733C1.51184 2.79486 1.01087 3.56909 0.696 4.424C0.314818 5.44538 0.107502 6.52342 0.0826667 7.61333C0.016 9.08533 0 9.576 0 13.3333C0 17.0907 0.016 17.5813 0.0826667 19.0533C0.105773 20.1438 0.31128 21.2227 0.690667 22.2453C1.00678 23.0973 1.50767 23.8686 2.15733 24.504C2.79486 25.1548 3.56909 25.6558 4.424 25.9707C5.44612 26.3502 6.52461 26.5557 7.61467 26.5787C9.08133 26.6453 9.57733 26.6613 13.3347 26.6613C17.092 26.6613 17.5827 26.6453 19.0547 26.5787C20.1451 26.5556 21.2241 26.3501 22.2467 25.9707C23.0945 25.6424 23.8644 25.1408 24.5073 24.4979C25.1501 23.8551 25.6517 23.0851 25.98 22.2373C26.3595 21.2152 26.565 20.1367 26.588 19.0467C26.6547 17.58 26.6707 17.084 26.6707 13.3267C26.6707 9.56933 26.6507 9.08533 26.584 7.61333ZM25.2507 18.992C25.2341 19.9375 25.0592 20.8736 24.7333 21.7613C24.4722 22.4361 24.0731 23.049 23.5616 23.5608C23.0501 24.0725 22.4374 24.4719 21.7627 24.7333C20.8744 25.0591 19.9379 25.2339 18.992 25.2507C17.5453 25.3173 17.0667 25.3333 13.3333 25.3333C9.6 25.3333 9.12133 25.3173 7.67467 25.2507C6.72914 25.2341 5.79308 25.0592 4.90533 24.7333C4.22506 24.4825 3.60989 24.082 3.10533 23.5613C2.58498 23.057 2.18447 22.4424 1.93333 21.7627C1.60761 20.8744 1.43275 19.9379 1.416 18.992C1.34933 17.5453 1.33333 17.0667 1.33333 13.3333C1.33333 9.6 1.34933 9.12133 1.416 7.67467C1.4326 6.72914 1.60747 5.79308 1.93333 4.90533C2.18413 4.22506 2.58468 3.60989 3.10533 3.10533C3.60963 2.58498 4.22429 2.18447 4.904 1.93333C5.79225 1.60761 6.72873 1.43275 7.67467 1.416C9.12267 1.34933 9.60667 1.33333 13.3333 1.33333C17.06 1.33333 17.544 1.34933 18.992 1.416C19.9375 1.4326 20.8736 1.60747 21.7613 1.93333C22.4416 2.18413 23.0568 2.58468 23.5613 3.10533C24.0817 3.60963 24.4822 4.22429 24.7333 4.904C25.0591 5.79225 25.2339 6.72873 25.2507 7.67467C25.3173 9.12133 25.3333 9.6 25.3333 13.3333C25.3333 17.0667 25.3173 17.5453 25.2507 18.992Z" fill="white"/>
<path d="M20.7747 4.62267C20.5233 4.6224 20.2774 4.69673 20.0682 4.83626C19.8591 4.97578 19.696 5.17422 19.5997 5.40645C19.5033 5.63869 19.478 5.89429 19.527 6.1409C19.576 6.38751 19.6971 6.61404 19.8749 6.79183C20.0526 6.96962 20.2792 7.09066 20.5258 7.13965C20.7724 7.18863 21.028 7.16336 21.2602 7.06702C21.4925 6.97068 21.6909 6.80761 21.8304 6.59845C21.9699 6.38928 22.0443 6.14343 22.044 5.892C22.0433 5.55557 21.9094 5.23312 21.6715 4.99522C21.4336 4.75733 21.1111 4.62337 20.7747 4.62267Z" fill="white"/>
<path d="M13.3333 6.76399C12.0341 6.76399 10.7639 7.14928 9.68362 7.87112C8.6033 8.59297 7.76129 9.61896 7.26407 10.8194C6.76685 12.0197 6.63676 13.3406 6.89024 14.6149C7.14372 15.8893 7.76939 17.0598 8.68812 17.9785C9.60686 18.8973 10.7774 19.523 12.0517 19.7764C13.3261 20.0299 14.6469 19.8998 15.8473 19.4026C17.0477 18.9054 18.0737 18.0634 18.7955 16.9831C19.5174 15.9027 19.9027 14.6326 19.9027 13.3333C19.9009 11.5916 19.2082 9.92166 17.9766 8.69005C16.745 7.45845 15.0751 6.76576 13.3333 6.76399ZM13.3333 18.5693C12.2978 18.5693 11.2854 18.2622 10.4244 17.6869C9.56332 17.1116 8.89221 16.2938 8.49591 15.3371C8.09961 14.3803 7.99592 13.3275 8.19795 12.3118C8.39999 11.2961 8.89866 10.3632 9.63093 9.63091C10.3632 8.89865 11.2962 8.39997 12.3119 8.19793C13.3275 7.9959 14.3803 8.09959 15.3371 8.49589C16.2938 8.89219 17.1116 9.5633 17.6869 10.4244C18.2623 11.2854 18.5693 12.2977 18.5693 13.3333C18.5676 14.7215 18.0154 16.0522 17.0338 17.0338C16.0522 18.0153 14.7215 18.5676 13.3333 18.5693Z" fill="white"/>
</svg>
