<svg width="21" height="24" viewBox="0 0 21 24" fill="none" xmlns="http://www.w3.org/2000/svg">
<path d="M16.067 11.123C15.963 11.0735 15.8579 11.0262 15.752 10.981C15.567 7.567 13.702 5.613 10.57 5.593H10.528C8.654 5.593 7.097 6.393 6.138 7.848L7.86 9.029C8.576 7.942 9.7 7.71 10.529 7.71H10.557C11.588 7.717 12.367 8.017 12.87 8.602C13.237 9.027 13.482 9.616 13.603 10.358C12.6249 10.1992 11.6319 10.1512 10.643 10.215C7.666 10.387 5.751 12.123 5.88 14.536C5.945 15.76 6.555 16.813 7.597 17.501C8.477 18.083 9.612 18.367 10.792 18.303C12.349 18.217 13.57 17.623 14.422 16.537C15.07 15.712 15.479 14.643 15.66 13.296C16.402 13.744 16.952 14.333 17.256 15.041C17.773 16.246 17.803 18.225 16.188 19.838C14.773 21.252 13.072 21.863 10.502 21.882C7.651 21.862 5.494 20.947 4.092 19.165C2.779 17.495 2.101 15.085 2.076 12C2.101 8.915 2.779 6.504 4.092 4.835C5.494 3.053 7.65 2.139 10.502 2.118C13.373 2.138 15.567 3.058 17.023 4.848C17.737 5.727 18.275 6.831 18.63 8.118L20.648 7.58C20.218 5.995 19.541 4.63 18.621 3.497C16.754 1.2 14.024 0.024 10.509 0H10.495C6.984 0.024 4.287 1.205 2.474 3.51C0.86 5.56 0.028 8.415 0 11.992V12.008C0.028 15.586 0.86 18.439 2.473 20.49C4.286 22.795 6.985 23.976 10.495 24H10.509C13.629 23.978 15.828 23.161 17.639 21.351C20.01 18.983 19.939 16.015 19.157 14.193C18.597 12.886 17.528 11.825 16.067 11.123ZM10.68 16.188C9.375 16.262 8.02 15.676 7.952 14.422C7.902 13.492 8.614 12.453 10.76 12.33C11.006 12.315 11.247 12.309 11.484 12.309C12.264 12.309 12.992 12.384 13.655 12.529C13.408 15.617 11.958 16.118 10.68 16.188Z" fill="white"/>
</svg>
